<?xml version="1.0" encoding="UTF-8" standalone="no"?>
<svg
   height="100%"
   shape-rendering="geometricPrecision"
   version="1.1"
   viewBox="0 0 834 302"
   width="100%"
   id="svg10"
   sodipodi:docname="10x_traced_maxdetail.svg"
   inkscape:version="1.4 (e7c3feb1, 2024-10-09)"
   xmlns:inkscape="http://www.inkscape.org/namespaces/inkscape"
   xmlns:sodipodi="http://sodipodi.sourceforge.net/DTD/sodipodi-0.dtd"
   xmlns="http://www.w3.org/2000/svg"
   xmlns:svg="http://www.w3.org/2000/svg">
  <sodipodi:namedview
     id="namedview10"
     pagecolor="#ffffff"
     bordercolor="#000000"
     borderopacity="0.25"
     inkscape:showpageshadow="2"
     inkscape:pageopacity="0.0"
     inkscape:pagecheckerboard="0"
     inkscape:deskcolor="#d1d1d1"
     inkscape:zoom="1.1296717"
     inkscape:cx="405.42753"
     inkscape:cy="242.99096"
     inkscape:window-width="1680"
     inkscape:window-height="992"
     inkscape:window-x="0"
     inkscape:window-y="30"
     inkscape:window-maximized="0"
     inkscape:current-layer="svg10" />
  <defs
     id="defs1" />
  <path
     id="path16"
     style="fill-rule:evenodd"
     d="m 698.80456,115.18973 c -10.03212,-0.11461 -21.01315,2.54406 -25.62891,12.29297 -7.31095,24.02701 -14.93938,48.01078 -21.49804,72.27149 -4.59185,9.3383 0.51138,21.6917 11.07031,23.68359 h 124 c 9.91882,-2.21229 15.83321,-9.6712 16.54297,-19.60742 5.32148,-21.8726 9.94438,-44.07903 14.61328,-66.26953 3.22528,-9.8911 -1.65937,-19.95905 -12.28125,-22.01758 -30.90774,-0.0373 -71.69,-0.0381 -102.59766,-0.14844 -1.37309,-0.11702 -2.78754,-0.1887 -4.2207,-0.20508 z m 46.0625,18.89258 c 1.59034,-0.0838 3.22663,0.19809 4.66602,0.74024 4.48752,3.46891 -0.32357,8.68494 -1.29297,13.08593 -0.61392,3.08027 -11.4607,38.39795 -14.65039,44.91211 -1.14834,4.98251 -2.8471,8.82358 -5.16016,12.92383 -1.36069,0.97443 -3.44952,0.35607 -5.05078,0.47852 -6.56719,1.43017 -6.67436,-5.72766 -3.83984,-9.5625 6.56992,-19.4381 12.32589,-39.1344 18.89062,-58.63282 1.26484,-2.65185 3.78694,-3.80562 6.4375,-3.94531 z m -31.9375,12.16211 3.89648,3.89648 c 2.2452,1.52106 3.67095,4.23645 0.37305,5.75782 -4.73994,3.4125 -10.75288,5.79767 -15.61719,9.14648 -5.42875,3.78603 -9.53054,4.15138 -6.01562,7.24219 2.77488,2.6843 14.05324,9.4263 18.86328,14.45703 l -7,7 -0.29883,0.32227 c -12.1938,-8.58262 -20.16753,-13.11892 -33.40039,-23.02149 14.81572,-10.4357 24.05479,-16.41655 39.19922,-24.80078 z m 50.38477,1.85352 c 6.97379,0.0374 24.35513,16.07774 29.77539,19.27148 6.28977,5.92538 -32.15376,23.34925 -37.66016,27.375 l -0.52344,0.46094 c -2.38349,-1.52569 -9.62337,-5.68903 -6.12109,-8.96875 4.47269,-2.80963 9.00829,-4.82354 13.43164,-7.9961 5.22479,-2.23586 9.8828,-5.62535 14.85156,-8.27343 -2.66341,-3.10364 -6.44794,-5.21585 -10.63867,-8.22266 -3.39284,-2.71602 -5.82646,-4.27176 -10,-8 l 4.59766,-4.59766 c 0.50624,-0.73194 1.29085,-1.05382 2.28711,-1.04882 z" />
  <g
     id="g31"
     transform="translate(-4,2)">
    <path
       d="M 597.90596,282.30803 C 583.76492,260.81052 568.85988,239.52016 554.5,218 c 2.19558,-5.57511 29.40155,-21.60645 18.36751,-22.705 -34.31076,29.12236 -68.36138,58.76196 -103.02332,87.03595 -20.1454,1.02406 -40.689,1.43498 -60.84419,0.16905 h -28 c 33.79584,-29.87172 68.90413,-58.38083 103.12076,-87.88523 13.0059,-14.22125 29.24685,-17.68107 42.17283,-31.75953 C 566.58098,128.19319 606.85672,93.159895 646.70729,57.948669 657.99081,52.679228 672.67943,56.603543 685.48467,55.5 H 729 c -14.44469,16.23252 -32.67756,29.337548 -48,45 -26.04404,22.30958 -51.36611,46.12511 -76.5,69.5 26.1638,37.25471 53.08878,74.05785 78.67261,111.68103 -1.40037,2.07729 -59.28421,2.68525 -85.26665,0.627 z"
       id="path1"
       style="fill:#000000;fill-rule:evenodd;stroke:none"
       sodipodi:nodetypes="ccccccccccccccc" />
    <path
       d="M 325,283.5 H 213 c 14.05429,-4.18206 30.15653,-2.01071 44.46205,-7.64073 33.78483,-7.28924 65.67983,-22.71747 94.66787,-41.02956 15.50748,-10.28808 29.24052,-23.04172 42.23349,-36.69312 4.08634,-6.18367 24.11932,-25.14798 14.64089,-25.75974 -15.45786,18.22448 -33.0748,34.12025 -52.60712,47.61789 -6.48068,4.76059 -27.15934,19.45225 -12.51412,1.61009 10.60581,-16.77355 10.62481,-37.36105 15.11653,-56.10483 4.45952,-23.93283 10.42724,-47.86707 13.5,-72.193795 C 375.87338,76.322941 359.71542,63.578497 343.95918,64.5 h -44.95959 c -9.66198,3.007048 -17.36655,1.572893 -5,-5 17.9958,-11.042166 37.06217,-21.609493 57.33717,-27.016447 18.45129,-5.20327 38.79195,-8.946822 57.3608,-2.307833 21.59453,5.316466 38.57547,26.480554 36.74926,49.229028 0.32851,15.33761 -4.38001,29.370792 -5.94682,44.289052 -3.91071,17.13311 -6.96763,35.63657 -10.94876,53.22054 -4.53268,24.79292 -7.70386,52.57339 -25.74203,71.82986 C 374.71746,284.05509 327.04795,281.82979 325,283.5 Z"
       id="path2"
       style="fill:#000000;fill-rule:evenodd;stroke:none"
       sodipodi:nodetypes="cccccccccccccccccccc" />
    <path
       d="m 176.35399,266.8525 c -16.59566,-10.2226 -20.5974,-31.3272 -16.78668,-49.42732 2.05686,-12.53347 4.46387,-25.08457 7.04427,-37.71651 3.76673,-21.21552 8.72511,-42.09618 12.39488,-63.39709 C 184.25042,91.737704 186.72982,63.8483 206.5,46 225.60282,25.014725 254.92363,15.720665 283.07092,17.5 H 365 c 7.645,1.88428 19.31846,0.742025 4.35367,2.96163 -18.63402,1.067659 -36.16994,8.172827 -53.39128,15.212818 C 296.17814,46.414365 277.17658,58.742288 261,74.5 c -16.26242,13.437277 -29.71837,29.87901 -42.81551,46.25794 0.13762,10.59585 11.42518,-9.01694 16.97016,-12.41259 C 243.64819,99.500629 253.46652,92.328296 262,83.5 c -4.19838,17.71998 -7.80646,36.24768 -11.5,54.17509 -4.61307,25.52119 -10.71301,50.71079 -15.03836,76.10191 -2.59576,18.57733 16.31408,28.75812 32.62837,27.16314 15.85967,1.21463 31.9517,0.25197 47.90999,0.55986 9.2697,-1.03803 -16.06375,9.76529 -20.31179,11.56217 -52.30742,23.33148 -100.14692,25.65843 -119.33422,13.79033 z"
       id="path3"
       style="fill:#000000;fill-rule:evenodd;stroke:none"
       sodipodi:nodetypes="ccccccccccccccccccc" />
    <path
       d="m 118,283.5 c -24,0 -48,0 -72,0 -1.270629,-10.86739 4.678745,-23.04708 5.73718,-34.21217 2.662018,-12.62805 4.897446,-24.94747 7.660789,-37.5886 C 62.31802,199.26559 63.942286,186.88942 67,174.5 70.75982,153.11294 75.685205,132.39133 79.5,111 81.126709,100.30207 82.360691,88.547037 95.580665,86.974071 105.16125,79.915608 88.310932,83.349009 84.599454,85.980322 73.870451,90.554058 62.558973,93.625661 52,98.5 40.610589,101.56733 29.907593,106.63754 18.628705,110.29192 18.822503,99.594178 23.238852,87.597065 24.817053,76.385379 24.283479,62.815227 39.280026,60.136034 48,53.5 58.051646,47.852337 67.553157,41.703549 77.490366,35.955594 86.912916,29.919985 96.600307,23.77438 106.2796,18.072048 116.21557,16.845961 126.57184,17.8038 136.68615,17.5 c 9.77128,0 19.54257,0 29.31385,0 4.90661,2.360517 14.96618,-1.678717 10.5,7.5 -3.33048,12.591503 -6.12555,25.322085 -8.36847,38.082537 -2.62426,11.846762 -5.34496,23.980609 -7.91372,36.110987 -2.38383,12.504816 -5.27897,24.669746 -7.86638,37.003696 -2.5669,12.48459 -5.37789,24.94371 -7.85143,37.42361 -3.02918,12.34639 -5.05254,24.96448 -7.93196,37.28223 -2.26676,12.36145 -5.59129,24.75254 -7.63778,37.23202 -4.41356,10.85953 -2.85749,26.10659 -9.90679,34.46325 z"
       id="path4"
       style="fill:#000000;fill-rule:evenodd;stroke:none" />
    <path
       d="m 465.5,259 c 16.466,-10.95545 31.92091,-22.98655 47.66701,-34.7688 11.53072,-9.14698 23.74384,-17.51077 34.76364,-27.48461 10.39245,-8.15357 20.49586,-16.78437 30.40689,-25.6388 11.96443,-9.66197 23.29878,-20.09266 35.10369,-29.99966 13.56289,-12.36454 27.47761,-24.27554 41.11547,-36.60813 4.94886,-7.871449 22.28333,-14.230613 19.54965,-22.89365 -11.45819,8.893389 -22.39696,18.234599 -34,26.7873 -13.39949,10.8235 -26.99946,21.58292 -40.29343,32.25827 -10.7182,9.76159 -22.70727,17.92951 -33.11498,28.07594 -10.17223,7.79224 -19.85698,16.04245 -29.52298,24.44452 -10.62146,8.70821 -21.28013,17.50888 -31.50383,26.74077 -12.08028,9.37178 -23.06469,20.04016 -34.8582,29.73877 -1.19411,2.75019 -12.96998,7.58283 -5.31293,9.34808 z"
       id="path5"
       style="fill:#000000;fill-rule:evenodd;stroke:none" />
    <path
       d="m 522,158.5 c -5.30784,-3.56179 -7.51807,-11.26131 -11.63638,-16.29896 C 507.06454,137.12365 503.18807,132.11531 500.5,127 496.35832,121.61033 492.49783,115.92399 489.25097,110.00303 485.65565,104.70378 482.24128,99.849362 479,94.5 475.73992,88.84758 471.95567,84.099356 468.12749,78.727523 467.65746,75.057365 457.02504,67.124071 463.4097,66.5 c 22.5301,0 45.0602,0 67.5903,0 3.95916,5.379948 7.4237,11.211217 11.36706,16.274737 4.04666,5.598838 7.15873,11.822326 11.7587,16.819619 3.04317,5.621444 7.542,10.979104 10.64196,16.605414 6.42664,5.02702 -6.2878,8.25941 -8.56776,13.03298 -3.18623,1.19777 -5.1208,4.67438 -7.77447,6.84176 -5.93012,3.8135 -10.7422,10.00163 -16.72433,13.72433 -1.90039,1.90039 -3.80077,3.80077 -5.70116,5.70116 -1.897,-0.15347 -2.64406,2.11081 -4,3 z"
       id="path7"
       style="fill:#000000;fill-rule:evenodd;stroke:none" />
  </g>
</svg>
