<?xml version="1.0" encoding="UTF-8" standalone="no"?>
<svg
   height="170"
   shape-rendering="geometricPrecision"
   version="1.1"
   viewBox="0 0 170 170.00001"
   width="170"
   id="svg10"
   sodipodi:docname="10x_icon.svg"
   inkscape:version="1.4 (e7c3feb1, 2024-10-09)"
   xmlns:inkscape="http://www.inkscape.org/namespaces/inkscape"
   xmlns:sodipodi="http://sodipodi.sourceforge.net/DTD/sodipodi-0.dtd"
   xmlns="http://www.w3.org/2000/svg"
   xmlns:svg="http://www.w3.org/2000/svg">
  <sodipodi:namedview
     id="namedview10"
     pagecolor="#ffffff"
     bordercolor="#000000"
     borderopacity="0.25"
     inkscape:showpageshadow="2"
     inkscape:pageopacity="0.0"
     inkscape:pagecheckerboard="0"
     inkscape:deskcolor="#d1d1d1"
     inkscape:zoom="1.1296717"
     inkscape:cx="351.87214"
     inkscape:cy="212.0085"
     inkscape:window-width="1680"
     inkscape:window-height="992"
     inkscape:window-x="0"
     inkscape:window-y="30"
     inkscape:window-maximized="0"
     inkscape:current-layer="svg10" />
  <defs
     id="defs1" />
  <path
     id="path16"
     style="fill-rule:evenodd"
     d="m 49.369059,30.877735 c -10.03212,-0.11461 -21.01315,2.54406 -25.62891,12.29297 -7.31095,24.027007 -14.9393807,48.010777 -21.4980407,72.271485 -4.59185,9.3383 0.51138,21.6917 11.0703107,23.68359 H 137.31242 c 9.91882,-2.21229 15.83321,-9.6712 16.54297,-19.60742 5.32148,-21.872598 9.94438,-44.079028 14.61328,-66.269525 3.22528,-9.8911 -1.65937,-19.95905 -12.28125,-22.01758 -30.90774,-0.0373 -71.69,-0.0381 -102.597661,-0.14844 -1.37309,-0.11702 -2.78754,-0.1887 -4.2207,-0.20508 z m 46.062501,18.89258 c 1.59034,-0.0838 3.22663,0.19809 4.66602,0.74024 4.48752,3.46891 -0.32357,8.68494 -1.29297,13.08593 -0.61392,3.080267 -11.4607,38.397945 -14.65039,44.912105 -1.14834,4.98251 -2.8471,8.82358 -5.16016,12.92383 -1.36069,0.97443 -3.44952,0.35607 -5.050779,0.47852 -6.56719,1.43017 -6.67436,-5.72766 -3.83984,-9.5625 C 76.67336,92.910342 82.42933,73.214042 88.99406,53.715625 c 1.26484,-2.65185 3.78694,-3.80562 6.4375,-3.94531 z m -31.937501,12.16211 3.896482,3.89648 c 2.2452,1.521057 3.67095,4.236447 0.37305,5.757817 -4.739942,3.4125 -10.752882,5.79767 -15.617192,9.14648 -5.42875,3.78603 -9.53054,4.15138 -6.01562,7.24219 2.77488,2.6843 14.05324,9.4263 18.86328,14.457028 l -7,7 -0.29883,0.32227 c -12.1938,-8.58262 -20.16753,-13.118918 -33.40039,-23.021488 14.81572,-10.4357 24.05479,-16.41655 39.19922,-24.800777 z m 50.384771,1.85352 c 6.97379,0.0374 24.35513,16.077737 29.77539,19.271477 6.28977,5.92538 -32.15376,23.349248 -37.66016,27.374998 l -0.52344,0.46094 c -2.38349,-1.52569 -9.62337,-5.68903 -6.12109,-8.96875 4.47269,-2.809628 9.00829,-4.823538 13.43164,-7.996098 5.22479,-2.23586 9.8828,-5.62535 14.85156,-8.27343 -2.66341,-3.10364 -6.44794,-5.21585 -10.63867,-8.22266 -3.39284,-2.71602 -5.82646,-4.27176 -10,-8 l 4.59766,-4.597657 c 0.50624,-0.73194 1.29085,-1.05382 2.28711,-1.04882 z" />
</svg>
